<svg width="320" height="100" viewBox="0 0 320 100" fill="none" xmlns="http://www.w3.org/2000/svg">
<mask id="path-1-inside-1_117_2" fill="white">
<path d="M9.91821e-05 74.0742H320V100H9.91821e-05V74.0742Z"/>
</mask>
<path d="M9.91821e-05 74.0742V75.1853H320V74.0742V72.9631H9.91821e-05V74.0742ZM320 100V98.889H9.91821e-05V100V101.111H320V100Z" fill="#302F2C" mask="url(#path-1-inside-1_117_2)"/>
<path d="M4.99074 92.5371H1.49959V81.224H5.14541C6.24285 81.224 7.18192 81.4505 7.96265 81.9034C8.74337 82.3527 9.3418 82.999 9.75794 83.8424C10.1741 84.682 10.3821 85.6874 10.3821 86.8585C10.3821 88.0369 10.1722 89.0515 9.75242 89.9022C9.33259 90.7492 8.72127 91.401 7.91845 91.8577C7.11563 92.3106 6.13973 92.5371 4.99074 92.5371ZM2.86953 91.3218H4.90236C5.83775 91.3218 6.61295 91.1414 7.22796 90.7805C7.84296 90.4196 8.30145 89.9059 8.60343 89.2393C8.9054 88.5727 9.05639 87.7791 9.05639 86.8585C9.05639 85.9452 8.90725 85.1589 8.60895 84.4997C8.31066 83.8368 7.86506 83.3286 7.27215 82.9751C6.67924 82.6179 5.94087 82.4393 5.05703 82.4393H2.86953V91.3218ZM29.169 92.5371V81.224H35.9966V82.4393H30.5389V86.2619H35.6431V87.4771H30.5389V91.3218H36.085V92.5371H29.169ZM61.1416 84.0523C61.0753 83.4925 60.8065 83.058 60.3351 82.7486C59.8637 82.4393 59.2855 82.2846 58.6005 82.2846C58.0997 82.2846 57.6615 82.3656 57.2858 82.5277C56.9139 82.6897 56.623 82.9125 56.413 83.1961C56.2068 83.4796 56.1037 83.8019 56.1037 84.1628C56.1037 84.4647 56.1755 84.7244 56.3191 84.9416C56.4664 85.1552 56.6543 85.3338 56.8826 85.4775C57.1109 85.6174 57.3503 85.7334 57.6007 85.8255C57.8511 85.9139 58.0813 85.9857 58.2912 86.0409L59.4402 86.3502C59.7348 86.4276 60.0626 86.5344 60.4235 86.6706C60.788 86.8069 61.1361 86.9929 61.4675 87.2286C61.8026 87.4606 62.0788 87.7589 62.2961 88.1234C62.5134 88.488 62.622 88.9355 62.622 89.4658C62.622 90.0771 62.4618 90.6295 62.1414 91.123C61.8247 91.6164 61.3607 92.0086 60.7494 92.2996C60.1417 92.5905 59.4034 92.736 58.5343 92.736C57.7241 92.736 57.0225 92.6052 56.4296 92.3438C55.8404 92.0823 55.3764 91.7177 55.0376 91.25C54.7025 90.7823 54.5128 90.2391 54.4686 89.6204H55.8827C55.9196 90.0476 56.0632 90.4012 56.3136 90.6811C56.5677 90.9573 56.8881 91.1635 57.2748 91.2997C57.6652 91.4323 58.085 91.4986 58.5343 91.4986C59.0572 91.4986 59.5267 91.4139 59.9429 91.2445C60.359 91.0714 60.6886 90.832 60.9317 90.5264C61.1747 90.217 61.2962 89.8561 61.2962 89.4437C61.2962 89.068 61.1913 88.7624 60.9814 88.5267C60.7715 88.291 60.4953 88.0995 60.1528 87.9522C59.8103 87.8049 59.4402 87.676 59.0425 87.5655L57.6504 87.1678C56.7666 86.9137 56.0669 86.551 55.5513 86.0796C55.0357 85.6082 54.778 84.9913 54.778 84.229C54.778 83.5956 54.9492 83.0432 55.2917 82.5718C55.6379 82.0968 56.1019 81.7285 56.6837 81.467C57.2693 81.2019 57.9229 81.0693 58.6447 81.0693C59.3739 81.0693 60.0221 81.2001 60.5892 81.4615C61.1563 81.7193 61.6056 82.0728 61.937 82.5221C62.2722 82.9714 62.4489 83.4815 62.4673 84.0523H61.1416ZM82.7332 81.224V92.5371H81.3633V81.224H82.7332ZM109.702 84.7593C109.581 84.3874 109.421 84.0541 109.222 83.7595C109.027 83.4612 108.793 83.2071 108.52 82.9972C108.251 82.7873 107.946 82.6271 107.603 82.5166C107.261 82.4061 106.885 82.3509 106.476 82.3509C105.806 82.3509 105.197 82.524 104.648 82.8701C104.099 83.2163 103.663 83.7264 103.339 84.4003C103.015 85.0742 102.853 85.901 102.853 86.8806C102.853 87.8601 103.017 88.6869 103.344 89.3608C103.672 90.0347 104.116 90.5448 104.676 90.891C105.235 91.2371 105.865 91.4102 106.565 91.4102C107.213 91.4102 107.784 91.2721 108.277 90.9959C108.774 90.716 109.161 90.322 109.437 89.8138C109.717 89.3019 109.857 88.6998 109.857 88.0074L110.277 88.0958H106.874V86.8806H111.183V88.0958C111.183 89.0275 110.984 89.8377 110.586 90.5264C110.192 91.215 109.647 91.749 108.951 92.1283C108.259 92.504 107.463 92.6918 106.565 92.6918C105.563 92.6918 104.683 92.4561 103.924 91.9847C103.169 91.5133 102.58 90.8431 102.157 89.974C101.737 89.1049 101.527 88.0737 101.527 86.8806C101.527 85.9857 101.647 85.181 101.886 84.4666C102.129 83.7485 102.472 83.1371 102.913 82.6326C103.355 82.1281 103.878 81.7414 104.482 81.4726C105.086 81.2037 105.751 81.0693 106.476 81.0693C107.073 81.0693 107.629 81.1595 108.145 81.34C108.664 81.5168 109.126 81.769 109.531 82.0968C109.94 82.4209 110.281 82.8094 110.553 83.2623C110.826 83.7116 111.013 84.2106 111.117 84.7593H109.702ZM138.989 81.224V92.5371H137.663L131.498 83.6545H131.388V92.5371H130.018V81.224H131.344L137.531 90.1287H137.641V81.224H138.989ZM185.27 84.0523C185.204 83.4925 184.935 83.058 184.463 82.7486C183.992 82.4393 183.414 82.2846 182.729 82.2846C182.228 82.2846 181.79 82.3656 181.414 82.5277C181.042 82.6897 180.751 82.9125 180.541 83.1961C180.335 83.4796 180.232 83.8019 180.232 84.1628C180.232 84.4647 180.304 84.7244 180.447 84.9416C180.595 85.1552 180.783 85.3338 181.011 85.4775C181.239 85.6174 181.479 85.7334 181.729 85.8255C181.979 85.9139 182.21 85.9857 182.419 86.0409L183.568 86.3502C183.863 86.4276 184.191 86.5344 184.552 86.6706C184.916 86.8069 185.264 86.9929 185.596 87.2286C185.931 87.4606 186.207 87.7589 186.424 88.1234C186.642 88.488 186.75 88.9355 186.75 89.4658C186.75 90.0771 186.59 90.6295 186.27 91.123C185.953 91.6164 185.489 92.0086 184.878 92.2996C184.27 92.5905 183.532 92.736 182.663 92.736C181.852 92.736 181.151 92.6052 180.558 92.3438C179.969 92.0823 179.505 91.7177 179.166 91.25C178.831 90.7823 178.641 90.2391 178.597 89.6204H180.011C180.048 90.0476 180.191 90.4012 180.442 90.6811C180.696 90.9573 181.016 91.1635 181.403 91.2997C181.793 91.4323 182.213 91.4986 182.663 91.4986C183.185 91.4986 183.655 91.4139 184.071 91.2445C184.487 91.0714 184.817 90.832 185.06 90.5264C185.303 90.217 185.425 89.8561 185.425 89.4437C185.425 89.068 185.32 88.7624 185.11 88.5267C184.9 88.291 184.624 88.0995 184.281 87.9522C183.939 87.8049 183.568 87.676 183.171 87.5655L181.779 87.1678C180.895 86.9137 180.195 86.551 179.68 86.0796C179.164 85.6082 178.906 84.9913 178.906 84.229C178.906 83.5956 179.077 83.0432 179.42 82.5718C179.766 82.0968 180.23 81.7285 180.812 81.467C181.398 81.2019 182.051 81.0693 182.773 81.0693C183.502 81.0693 184.15 81.2001 184.717 81.4615C185.285 81.7193 185.734 82.0728 186.065 82.5221C186.4 82.9714 186.577 83.4815 186.596 84.0523H185.27ZM204.873 82.4393V81.224H213.358V82.4393H209.8V92.5371H208.43V82.4393H204.873ZM239.385 81.224H240.755V88.7145C240.755 89.4879 240.573 90.1784 240.208 90.786C239.847 91.39 239.337 91.8669 238.678 92.2167C238.019 92.5629 237.245 92.736 236.358 92.736C235.47 92.736 234.697 92.5629 234.038 92.2167C233.379 91.8669 232.867 91.39 232.502 90.786C232.141 90.1784 231.961 89.4879 231.961 88.7145V81.224H233.331V88.604C233.331 89.1564 233.452 89.6481 233.695 90.0789C233.938 90.5061 234.285 90.8431 234.734 91.0898C235.187 91.3329 235.728 91.4544 236.358 91.4544C236.988 91.4544 237.529 91.3329 237.982 91.0898C238.435 90.8431 238.781 90.5061 239.021 90.0789C239.264 89.6481 239.385 89.1564 239.385 88.604V81.224ZM263.471 92.5371H259.98V81.224H263.626C264.723 81.224 265.662 81.4505 266.443 81.9034C267.223 82.3527 267.822 82.999 268.238 83.8424C268.654 84.682 268.862 85.6874 268.862 86.8585C268.862 88.0369 268.652 89.0515 268.233 89.9022C267.813 90.7492 267.201 91.401 266.399 91.8577C265.596 92.3106 264.62 92.5371 263.471 92.5371ZM261.35 91.3218H263.382C264.318 91.3218 265.093 91.1414 265.708 90.7805C266.323 90.4196 266.782 89.9059 267.084 89.2393C267.386 88.5727 267.536 87.7791 267.536 86.8585C267.536 85.9452 267.387 85.1589 267.089 84.4997C266.791 83.8368 266.345 83.3286 265.752 82.9751C265.159 82.6179 264.421 82.4393 263.537 82.4393H261.35V91.3218ZM289.019 81.224V92.5371H287.649V81.224H289.019ZM317.8 86.8806C317.8 88.0737 317.585 89.1049 317.154 89.974C316.723 90.8431 316.132 91.5133 315.381 91.9847C314.629 92.4561 313.771 92.6918 312.806 92.6918C311.842 92.6918 310.984 92.4561 310.232 91.9847C309.481 91.5133 308.89 90.8431 308.459 89.974C308.028 89.1049 307.813 88.0737 307.813 86.8806C307.813 85.6874 308.028 84.6562 308.459 83.7871C308.89 82.918 309.481 82.2478 310.232 81.7764C310.984 81.305 311.842 81.0693 312.806 81.0693C313.771 81.0693 314.629 81.305 315.381 81.7764C316.132 82.2478 316.723 82.918 317.154 83.7871C317.585 84.6562 317.8 85.6874 317.8 86.8806ZM316.474 86.8806C316.474 85.901 316.311 85.0742 315.983 84.4003C315.659 83.7264 315.219 83.2163 314.663 82.8701C314.11 82.524 313.491 82.3509 312.806 82.3509C312.122 82.3509 311.501 82.524 310.945 82.8701C310.392 83.2163 309.952 83.7264 309.625 84.4003C309.301 85.0742 309.139 85.901 309.139 86.8806C309.139 87.8601 309.301 88.6869 309.625 89.3608C309.952 90.0347 310.392 90.5448 310.945 90.891C311.501 91.2371 312.122 91.4102 312.806 91.4102C313.491 91.4102 314.11 91.2371 314.663 90.891C315.219 90.5448 315.659 90.0347 315.983 89.3608C316.311 88.6869 316.474 87.8601 316.474 86.8806Z" fill="#302F2C"/>
<path d="M106.719 2.44708C102.097 0.815696 96.4784 0 89.864 0H47.9604L59.1609 11.9823H88.6688C92.4143 11.9823 95.2033 12.6292 97.0362 13.9231C98.9488 15.2169 99.9051 16.989 99.9051 19.2391C99.9051 21.6018 98.9488 23.4301 97.0362 24.724C96.1215 25.3697 94.9687 25.8543 93.5776 26.1777C92.1813 26.5024 90.5451 26.6648 88.6688 26.6648H72.9003L103.389 59.2479H116.212L124.383 59.2363L102.446 35.6944C108.389 34.3906 112.881 32.2245 115.923 29.1962C118.75 26.4518 120.324 23.3755 120.643 19.9672V17.2777C120.377 14.3305 119.242 11.6371 117.238 9.19767C114.927 6.32868 111.42 4.07847 106.719 2.44708Z" fill="#302F2C"/>
<path d="M129.527 0.0115802L129.528 59.2363L149.968 59.2479V22.7104L184.156 59.2479H205.15L149.968 0.0115802H129.527Z" fill="#302F2C"/>
<path fill-rule="evenodd" clip-rule="evenodd" d="M74.3682 36.8965L40.2871 0.474755C37.4732 0.173606 34.5235 0.0230284 31.4381 0.0230284L0 0.0115802V27.2184L29.8516 59.2593H31.4381C33.5326 59.2593 35.5656 59.1886 37.5373 59.0473C43.8175 58.5972 49.4746 57.4302 54.5085 55.5464C61.2026 53.0712 66.3427 49.5834 69.9288 45.0831C71.9857 42.5579 73.4655 39.829 74.3682 36.8965ZM20.4407 12.3428H30.1232C37.8532 12.3428 43.8698 13.8617 48.1732 16.8994C52.4765 19.9372 54.6281 24.1844 54.6281 29.6412C54.6281 35.0979 52.4765 39.317 48.1732 42.2985C43.8698 45.28 37.8532 46.7707 30.1232 46.7707H20.4407V12.3428Z" fill="#302F2C"/>
<path fill-rule="evenodd" clip-rule="evenodd" d="M257.778 36.8965L223.697 0.474755C220.883 0.173606 217.933 0.0230284 214.847 0.0230284L183.409 0.0115802V27.2184L213.261 59.2593H214.847C216.942 59.2593 218.975 59.1886 220.947 59.0473C227.227 58.5972 232.884 57.4302 237.918 55.5464C244.612 53.0712 249.752 49.5834 253.338 45.0831C255.395 42.5579 256.875 39.829 257.778 36.8965ZM203.85 12.3428H213.533C221.263 12.3428 227.279 13.8617 231.583 16.8994C235.886 19.9372 238.038 24.1844 238.038 29.6412C238.038 35.0979 235.886 39.317 231.583 42.2985C227.279 45.28 221.263 46.7707 213.533 46.7707H203.85V12.3428Z" fill="#302F2C"/>
<path d="M308.147 17.7773L308.147 23.7033L302.222 23.7033H300.74L296.296 19.2588V23.7033V44.444H284.444V23.7033L272.592 23.7033L272.592 17.7773H308.147Z" fill="#302F2C"/>
<circle cx="290.37" cy="29.6296" r="29.037" stroke="#302F2C" stroke-width="1.18518"/>
</svg>
