<svg width="36" height="36" viewBox="0 0 36 36" fill="none" xmlns="http://www.w3.org/2000/svg">
<path d="M29.1261 6.57387C26.7334 4.18118 24.1775 5.72981 22.5779 7.32935L7.46766 22.4402C5.86812 24.0395 4.19391 26.4697 6.71218 28.9876C9.23044 31.5064 11.6606 29.8319 13.2598 28.2323L28.3704 13.1219C29.97 11.5222 31.5186 8.96627 29.1261 6.57387Z" fill="#DDDBD1"/>
<path d="M14.6899 5.9549L17.8894 9.15428L21.1462 5.89755C21.3673 5.67593 21.5918 5.47026 21.8177 5.2763C21.4766 3.55559 20.4948 2 17.8879 2C15.2761 2 14.2955 3.5617 13.9563 5.28614C14.2001 5.49707 14.4435 5.70851 14.6899 5.9549Z" fill="#DDDBD1"/>
<path d="M21.1443 29.7211L17.8896 26.4662L14.6917 29.6638C14.4489 29.9068 14.2072 30.1287 13.9666 30.3373C14.3333 32.0914 15.3712 33.6981 17.8883 33.6981C20.4119 33.6981 21.4484 32.0828 21.8128 30.323C21.5889 30.1304 21.365 29.9416 21.1443 29.7211Z" fill="#DDDBD1"/>
<path d="M13.3327 13.7111H7.16431C4.90262 13.7111 2 14.4237 2 17.8071C2 20.3316 3.61583 21.3683 5.3759 21.7324C5.58429 21.4918 13.3327 13.7111 13.3327 13.7111Z" fill="#DDDBD1"/>
<path d="M30.4128 13.8754C30.2176 14.1025 22.4529 21.9028 22.4529 21.9028H28.5338C30.7956 21.9028 33.6981 21.3684 33.6981 17.8071C33.6981 15.1956 32.1369 14.2145 30.4128 13.8754Z" fill="#DDDBD1"/>
<path d="M15.3539 11.6864L16.4559 10.5844L13.2583 7.38632C11.6586 5.78695 9.22873 4.11257 6.71047 6.63084C4.86385 8.47742 5.27401 10.2747 6.25348 11.7337C6.5518 11.7116 15.3539 11.6864 15.3539 11.6864Z" fill="#DDDBD1"/>
<path d="M20.424 23.9276L19.3191 25.0325L22.5762 28.2893C24.1758 29.889 26.7317 31.4373 29.1241 29.0449C30.9092 27.2596 30.4996 25.3844 29.5127 23.8823C29.195 23.9052 20.424 23.9276 20.424 23.9276Z" fill="#DDDBD1"/>
</svg>
